<svg xmlns:xlink="http://www.w3.org/1999/xlink" xmlns="http://www.w3.org/2000/svg" fill="none" viewBox="0 0 103 102" class="contact_ico__lkpZl" width="103"  height="102" ><path fill="#E3E6EE" d="M59.939 28.4h13.505L50.986 6v13.47c0 4.91 4.03 8.93 8.953 8.93"></path><path stroke="#E3E6EE" stroke-miterlimit="10" stroke-width="2px" d="M18.228 6c-4.923 0-8.953 4.02-8.953 8.93v65.66c0 4.91 4.03 8.93 8.953 8.93H64.5c4.923 0 8.954-4.02 8.954-8.93V28.4L50.994 6z" fill="none"></path><path stroke="#68CAFF" stroke-linecap="round" stroke-linejoin="round" stroke-width="1.7px" d="M23.484 50.86h15.14" fill="none"></path><path stroke="#68CAFF" stroke-linecap="round" stroke-linejoin="round" stroke-width="2px" d="M23.484 60.37h30.28M23.484 70.94h30.28" fill="none"></path><path fill="#0042FF" d="M68.15 96c13.876 0 25.125-11.22 25.125-25.06s-11.25-25.06-25.126-25.06S43.023 57.1 43.023 70.94 54.273 96 68.15 96"></path><path fill="#FFFFFF" d="m60.407 75.11 7.008 7.5c.241.45.682.72 1.244.72s1.012-.27 1.243-.72l7.008-7.5c.582-.62.582-1.55 0-2.17-.29-.31-.581-.47-1.012-.47s-.722.16-1.013.47l-4.793 5.12V60.28c0-.93-.581-1.55-1.453-1.55s-1.454.62-1.454 1.55v17.78l-4.793-5.12c-.29-.31-.581-.47-1.012-.47s-.722.16-1.013.47a1.57 1.57 0 0 0 0 2.17h.04"></path></svg>