<svg xmlns:xlink="http://www.w3.org/1999/xlink" xmlns="http://www.w3.org/2000/svg" fill="none" viewBox="0 0 102 102" class="contact_ico__lkpZl" width="102"  height="102" ><path fill="#68CAFF" d="M32.618 37.64c1.69 0 3.06-1.365 3.06-3.05s-1.37-3.05-3.06-3.05a3.055 3.055 0 0 0-3.06 3.05c0 1.685 1.37 3.05 3.06 3.05M49.63 37.64c1.69 0 3.06-1.365 3.06-3.05s-1.37-3.05-3.06-3.05a3.055 3.055 0 0 0-3.06 3.05c0 1.685 1.37 3.05 3.06 3.05M66.642 37.64c1.69 0 3.06-1.365 3.06-3.05s-1.37-3.05-3.06-3.05a3.055 3.055 0 0 0-3.06 3.05c0 1.685 1.37 3.05 3.06 3.05"></path><path stroke="#E3E6EE" stroke-miterlimit="10" stroke-width="2px" d="M28 60.533c-2.94.468-5.19 2.93-7.42 4.714-2.81 2.242-5.641 4.475-8.451 6.727-1.09.867-2.23 1.236-3.53.618-1.331-.638-1.771-1.774-1.771-3.21V17.867c0-3.776 3.1-6.866 6.89-6.866h73.058c3.79 0 6.89 3.09 6.89 6.867v35.68c0 3.777-3.1 6.866-6.89 6.866H68.324c-10.27 0-20.552.06-30.823 0-2.68-.02-5.36.02-8.05.04-.31 0-.62 0-.93.03-.18.01-.35.03-.53.06z" fill="none"></path><path fill="#0042FF" d="M70.266 91c13.841 0 25.062-11.182 25.062-24.975s-11.22-24.976-25.062-24.976S45.203 52.23 45.203 66.025 56.423 91 70.266 91"></path><path fill="#FFFFFF" d="M65.075 55.908c1.02-1.036 2.69-1.555 4.99-1.555s4.17.549 5.3 1.655c1.13 1.076 1.69 2.8 1.69 5.152 0 2.233-.65 3.967-1.95 5.223-.88.867-2.23 1.605-4.05 2.203-.04.538-.06.966-.06 1.265-.02.389-.01.797.03 1.236.02.28-.11.498-.41.648-.27.15-.61.23-1 .23s-.73-.08-1-.23c-.31-.15-.46-.369-.44-.648V67.23c0-.299.03-.528.09-.678.06-.239.21-.408.44-.518.17-.06.53-.16 1.1-.289l.63-.13c1.26-.259 2.19-.807 2.79-1.654.54-.757.82-1.694.82-2.82 0-1.256-.35-2.223-1.04-2.92-.71-.718-1.69-1.067-2.95-1.067-1.57 0-2.56.26-2.98.777-.27.37-.41 1.216-.41 2.532a.98.98 0 0 1-.44.907c-.29.22-.64.329-1.04.329-.42 0-.77-.11-1.07-.33a1.05 1.05 0 0 1-.47-.906q0-3.08 1.41-4.545zm6.12 22.474c-.46.39-1 .588-1.63.588-.67 0-1.23-.199-1.69-.588a1.95 1.95 0 0 1-.72-1.554c0-.628.24-1.186.72-1.625.46-.409 1.02-.618 1.69-.618.61 0 1.15.21 1.63.618.52.429.78.977.78 1.625 0 .647-.26 1.146-.78 1.554"></path></svg>