<svg xmlns:xlink="http://www.w3.org/1999/xlink" xmlns="http://www.w3.org/2000/svg" fill="none" viewBox="0 0 140 35" class="footer_logoEteversePA__qaepR" width="140"  height="35" ><g clip-path="url(#etevers_ePA_svg__a)" fill="#434343"><path d="M34.638 34.583a2.48 2.48 0 0 1-.994-1.08c-.227-.468-.347-1.008-.347-1.635s.113-1.16.347-1.634c.227-.474.553-.84.974-1.107q.629-.392 1.467-.394c.487 0 .927.107 1.334.314.4.213.727.54.974.994q.368.68.366 1.72v.42h-4.282c.014.38.087.7.234.974s.34.474.593.614c.254.14.54.213.874.213s.587-.06.814-.18.387-.28.5-.473h1.2a1.97 1.97 0 0 1-.48.86c-.226.247-.52.434-.867.574-.346.133-.74.2-1.173.2q-.879 0-1.528-.38zm2.954-3.275q.002-.45-.187-.82c-.126-.24-.3-.434-.526-.567a1.5 1.5 0 0 0-.787-.2c-.3 0-.58.073-.82.213q-.361.21-.561.58a1.9 1.9 0 0 0-.234.794zM40.035 26.812h2.862c.606 0 1.12.114 1.534.334q.62.34.94.92c.207.394.313.84.313 1.348q-.001.758-.313 1.347-.31.588-.94.927c-.42.227-.928.333-1.534.333h-1.641v2.822h-1.22v-8.037zm2.748 4.169q.85 0 1.26-.42.412-.43.414-1.14c0-.474-.14-.861-.413-1.141q-.411-.418-1.26-.427h-1.522v3.128zM45.51 34.843l2.889-8.037h1.407l2.895 8.037H51.4l-.734-2.121h-3.128l-.733 2.12h-1.301zm4.803-3.142-1.187-3.428h-.054l-1.18 3.428h2.427zM.348 15.607v-12.8L5.217 0l11.051 6.383v4.008L3.816 3.201V13.6L14.9 19.996l-3.475 2.007z" fill="#434343"></path><path d="M19.034 0v15.18L6.582 7.99V12l11.085 6.403 1.84-1.068.161-.093 2.835-1.634V2.001zM111.651 19.622v-16.1h7.29c3.628 0 5.776 2.087 5.776 5.075 0 1.994-1.074 3.695-3.495 4.822l4.029 6.197h-3.088l-3.835-5.943h-4.082v5.956h-2.601zm2.601-8.43h4.783c2.087 0 3.094-1.194 3.094-2.595 0-1.4-.847-2.588-3.054-2.588h-4.823zM91.758 3.521c-.374 1.081-5.73 14.927-5.75 14.98-.02-.053-5.375-13.899-5.749-14.98h-3.001l6.33 16.095h4.828l6.33-16.095h-3.002zM34.697 17.134V12.42h9.004V9.978h-9.004V6.009h9.565V3.521H31.996v16.101h11.165l1.3-2.488zM65.744 17.134V12.42h8.998V9.978h-8.998V6.009h9.564V3.521H63.043v16.101h11.165l1.3-2.488zM99.4 17.134V12.42h9.005V9.978H99.4V6.009h9.571V3.521H96.699v16.101h11.172l1.301-2.488zM133.576 9.945c-2.221-.707-3.728-1.034-3.702-2.361.027-1.334 1.741-2.028 3.889-1.835 1.634.14 2.908.66 4.289 1.534l1.08-2.06c-1.594-1.088-3.181-1.775-5.389-1.888-1.207-.06-2.808.12-4.102.8s-2.441 1.908-2.508 3.442c-.127 2.794 2.228 3.975 5.836 5.049 3.502 1.147 4.309 1.614 4.189 2.901-.127 1.32-1.921 2.168-4.055 1.928-1.955-.22-3.849-1.04-5.269-2.368l-1.154 2.208c2.167 1.814 4.262 2.427 6.376 2.547 4.822.26 6.743-2.127 6.843-4.235.127-2.721-1.421-4.095-6.316-5.649zM46.32 3.521V6.01h5.983v13.613h2.701V6.01h5.976V3.521z" fill="#434343"></path></g><defs><clipPath id="etevers_ePA_svg__a"><path fill="#fff" d="M.348 0h139.55v34.969H.348z"></path></clipPath></defs></svg>