<svg xmlns:xlink="http://www.w3.org/1999/xlink" xmlns="http://www.w3.org/2000/svg" fill="none" viewBox="0 0 210 22" class="main_logoEtechSystem__tvlj8" width="361"  height="38" ><g clip-path="url(#etechSystem_svg__a)" fill="#FFFFFF"><path d="M179.549 17.115V12.4h8.996V9.964h-8.996v-3.97h9.561V3.512h-12.258000000000001v16.086h11.161l1.298-2.483zM65.904 17.122v-4.716h8.995V9.971h-8.995V6h9.56V3.52H63.199v16.086h11.162l1.305-2.483zM123.49 9.93c-2.22-.706-3.727-1.036-3.701-2.361.027-1.332 1.743-2.025 3.889-1.837 1.635.142 2.907.66 4.292 1.527l1.077-2.058c-1.595-1.083-3.182-1.776-5.389-1.89-1.204-.061-2.806.12-4.097.8s-2.436 1.904-2.51 3.438c-.128 2.792 2.227 3.97 5.833 5.046 3.499 1.15 4.306 1.614 4.185 2.9-.128 1.325-1.917 2.166-4.05 1.93-1.951-.215-3.848-1.036-5.268-2.361l-1.157 2.206c2.166 1.817 4.265 2.43 6.371 2.544 4.817.262 6.741-2.126 6.842-4.232.128-2.725-1.419-4.097-6.311-5.645zM152.375 9.93c-2.22-.706-3.727-1.036-3.7-2.361.027-1.332 1.743-2.025 3.889-1.837 1.635.142 2.906.66 4.285 1.527l1.077-2.058c-1.595-1.083-3.182-1.776-5.389-1.89-1.204-.061-2.806.12-4.097.8s-2.436 1.904-2.51 3.438c-.128 2.792 2.227 3.97 5.833 5.046 3.499 1.15 4.306 1.614 4.185 2.9-.128 1.325-1.918 2.166-4.05 1.93-1.951-.215-3.849-1.036-5.268-2.361l-1.157 2.206c2.166 1.817 4.265 2.43 6.371 2.544 4.817.262 6.741-2.126 6.842-4.232.128-2.725-1.419-4.097-6.311-5.645zM34.877 17.115V12.4h8.995V9.964h-8.995v-3.97h9.56V3.512H32.17v16.086h11.162l1.306-2.483zM46.488 3.512v2.482h5.981v13.604h2.698V5.994h5.981V3.512zM159.926 3.512v2.482h5.974v13.604h2.698V5.994h5.981V3.512zM205.757 3.519l-4.958 13.872-4.965-13.872h-4.037v16.086h2.698V7.48l4.279 12.124h4.05l4.272-12.124v12.124h2.705V3.519zM105.329 3.519v6.438h-8.928V3.52h-2.698v16.086h2.698v-7.212h8.928v7.212h2.698V3.519zM90.159 15.723c-1.5 1.117-2.664 1.635-4.649 1.635-3.102 0-5.564-2.355-5.564-5.786s2.463-5.786 5.564-5.786c1.628 0 2.758.303 4.117 1.231l1.124-2.14a9.7 9.7 0 0 0-5.234-1.553c-4.219 0-8.255 3.162-8.255 8.255s4.036 8.255 8.255 8.255c1.937 0 3.976-.599 5.786-1.931l-1.137-2.173zM145.486 3.512h-3.37l-4.474 7.589-4.474-7.59h-3.371l6.499 10.113v5.974h2.698v-5.981zM.523 15.609V2.812L5.388 0l11.06 6.385v4.003L3.995 3.202v10.402l11.08 6.398L11.606 22z" fill="#FFFFFF"></path><path d="M19.215 0v15.185L6.762 7.993v4.01l11.08 6.398 1.844-1.063.161-.095 2.833-1.634V2.005z" fill="#FFFFFF"></path></g><defs><clipPath id="etechSystem_svg__a"><path fill="#fff" d="M.523 0H209.8v22H.523z"></path></clipPath></defs></svg>