<svg xmlns:xlink="http://www.w3.org/1999/xlink" xmlns="http://www.w3.org/2000/svg" viewBox="0 0 14 18" class="footer_blog__B1B5B" width="14"  height="18" ><path d="M10.688 8.86q1.464.312 2.352 1.464.888 1.128.888 2.592 0 2.112-1.488 3.36Q10.976 17.5 8.336 17.5H.488V.652h7.584q2.568 0 4.008 1.176 1.464 1.176 1.464 3.192 0 1.488-.792 2.472-.768.984-2.064 1.368M4.592 7.468H7.28q1.008 0 1.536-.432.552-.456.552-1.32t-.552-1.32Q8.288 3.94 7.28 3.94H4.592zm3.024 6.72q1.032 0 1.584-.456.576-.48.576-1.368t-.6-1.392q-.576-.504-1.608-.504H4.592v3.72z" fill="#FFFFFF"></path></svg>