<svg xmlns:xlink="http://www.w3.org/1999/xlink" xmlns="http://www.w3.org/2000/svg" fill="none" viewBox="0 0 141 35" class="main_logoEteversEnL__b2Jdc" width="241"  height="60" ><g clip-path="url(#eteversE&amp;L_svg__a)" fill="#FFFFFF"><path d="M.898 15.607v-12.8L5.768 0l11.051 6.383v4.008L4.367 3.201V13.6l11.085 6.396-3.475 2.007z" fill="#FFFFFF"></path><path d="M19.585 0v15.18L7.133 7.99V12l11.085 6.403 1.84-1.068.16-.093 2.835-1.634V2.001zM112.202 19.622v-16.1h7.29c3.628 0 5.776 2.087 5.776 5.075 0 1.994-1.074 3.695-3.495 4.822l4.028 6.197h-3.088l-3.835-5.943h-4.082v5.956h-2.601zm2.601-8.43h4.782c2.088 0 3.095-1.194 3.095-2.595 0-1.4-.847-2.588-3.055-2.588h-4.822zM92.309 3.521c-.374 1.081-5.73 14.927-5.75 14.98-.02-.053-5.376-13.899-5.749-14.98h-3.001l6.33 16.095h4.828l6.33-16.095h-3.002zM35.248 17.134V12.42h9.004V9.978h-9.004V6.009h9.564V3.521H32.547v16.101h11.165l1.3-2.488zM66.295 17.134V12.42h8.997V9.978h-8.997V6.009h9.564V3.521H63.594v16.101h11.165l1.3-2.488zM99.951 17.134V12.42h9.004V9.978h-9.004V6.009h9.571V3.521H97.25v16.101h11.172l1.3-2.488zM134.127 9.945c-2.221-.707-3.728-1.034-3.702-2.361.027-1.334 1.741-2.028 3.889-1.835 1.634.14 2.908.66 4.288 1.534l1.081-2.06c-1.594-1.088-3.182-1.775-5.389-1.888-1.208-.06-2.808.12-4.102.8s-2.441 1.908-2.508 3.442c-.127 2.794 2.228 3.975 5.836 5.049 3.502 1.147 4.309 1.614 4.189 2.901-.127 1.32-1.921 2.168-4.056 1.928-1.954-.22-3.848-1.04-5.269-2.368l-1.154 2.208c2.168 1.814 4.262 2.427 6.377 2.547 4.822.26 6.743-2.127 6.843-4.235.127-2.721-1.421-4.095-6.316-5.649zM46.871 3.521V6.01h5.983v13.613h2.701V6.01h5.976V3.521zM34.215 26.786h5.035v1.053h-3.815v2.428h3.549v1.04h-3.549v2.455h3.862v1.054h-5.082v-8.037zM40.384 32.688c0-.967.634-1.56 1.554-2.188-.513-.613-.887-1.174-.887-1.9 0-1.108.807-1.908 2.028-1.908 1.22 0 1.994.807 1.994 1.754 0 .767-.4 1.32-1.067 1.807l-.553.4 1.607 1.922c.207-.394.333-.874.333-1.408h1.068c0 1.107-.32 1.834-.667 2.275l1.14 1.374H45.6l-.547-.647c-.54.513-1.34.753-2.074.753-1.608 0-2.608-.953-2.608-2.24zM43 33.935c.487 0 .987-.187 1.4-.533l-1.8-2.108-.2.153c-.634.467-.834.954-.834 1.208 0 .687.567 1.273 1.434 1.273zm-.187-4.055.487-.347c.434-.287.7-.58.7-1.054 0-.38-.353-.8-.9-.8a.95.95 0 0 0-.94.934c0 .407.286.814.653 1.267M47.813 26.785h1.22v6.983h3.628v1.054h-4.849z" fill="#FFFFFF"></path></g><defs><clipPath id="eteversE&amp;L_svg__a"><path fill="#fff" d="M.898 0h139.55v34.929H.898z"></path></clipPath></defs></svg>