<svg xmlns:xlink="http://www.w3.org/1999/xlink" xmlns="http://www.w3.org/2000/svg" fill="none" viewBox="0 0 140 22" class="footer_logoEtevers__H_vLo" width="140"  height="22" ><g clip-path="url(#etevers_svg__a)" fill="#434343"><path d="M0 15.605V2.808L4.868 0l11.05 6.382v4.008L3.468 3.2v10.397l11.083 6.395L11.077 22z" fill="#434343"></path><path d="M18.685 0v15.178L6.235 7.989v4.008l11.083 6.402 1.84-1.067.16-.093 2.834-1.634V2zM111.288 19.62V3.52h7.289c3.628 0 5.775 2.087 5.775 5.075 0 1.994-1.074 3.694-3.495 4.821l4.028 6.196h-3.087l-3.835-5.949h-4.081v5.955h-2.601zm2.601-8.43h4.781c2.087 0 3.094-1.194 3.094-2.594s-.846-2.588-3.054-2.588h-4.821zM91.396 3.521c-.373 1.08-5.728 14.924-5.748 14.978-.02-.053-5.375-13.898-5.749-14.978h-3l6.328 16.092h4.828L94.384 3.52h-3.001zM34.345 17.132v-4.715h9.003v-2.44h-9.003V6.007h9.563V3.521H31.645v16.098h11.163l1.3-2.487zM65.388 17.132v-4.715h8.996v-2.44h-8.996V6.007h9.563V3.521H62.687v16.098h11.164l1.3-2.487zM99.037 17.132v-4.715h9.002v-2.44h-9.002V6.007h9.569V3.521h-12.27v16.098h11.17l1.3-2.487zM133.208 9.943c-2.221-.707-3.728-1.04-3.701-2.36.026-1.334 1.74-2.028 3.888-1.834 1.633.146 2.907.66 4.288 1.533l1.08-2.06c-1.594-1.087-3.181-1.774-5.388-1.887-1.207-.06-2.808.12-4.102.8-1.293.68-2.44 1.907-2.507 3.44-.127 2.795 2.227 3.975 5.835 5.049 3.501 1.147 4.308 1.614 4.188 2.9-.127 1.321-1.921 2.168-4.055 1.928-1.953-.22-3.847-1.04-5.268-2.367l-1.154 2.207c2.168 1.814 4.262 2.434 6.376 2.547 4.821.26 6.742-2.127 6.842-4.234.127-2.72-1.421-4.095-6.315-5.648zM45.969 3.521v2.487h5.982V19.62h2.7V6.01h5.9750000000000005V3.52z" fill="#434343"></path></g><defs><clipPath id="etevers_svg__a"><path fill="#fff" d="M0 0h139.522v22H0z"></path></clipPath></defs></svg>