<svg xmlns:xlink="http://www.w3.org/1999/xlink" xmlns="http://www.w3.org/2000/svg" fill="none" viewBox="0 0 103 102" class="contact_ico__lkpZl" width="103"  height="102" ><path stroke="#E3E6EE" stroke-miterlimit="10" stroke-width="2px" d="M51.237 96c22.368 0 40.5-8.995 40.5-20.09s-18.132-20.09-40.5-20.09-40.5 8.994-40.5 20.09S28.87 96 51.237 96Z" fill="none"></path><path fill="#68CAFF" d="M51.237 86.85c12.565 0 22.75-5.055 22.75-11.29s-10.185-11.29-22.75-11.29-22.75 5.055-22.75 11.29 10.185 11.29 22.75 11.29"></path><path fill="#0042FF" d="M51.237 6C37.451 6 26.27 17.68 26.27 32.08c0 10.52 3.504 13.45 22.401 42.07a3.048 3.048 0 0 0 5.132 0c18.887-28.62 22.4-31.55 22.4-42.07C76.204 17.67 65.024 6 51.238 6m0 35.26c-6.06 0-10.961-4.92-10.961-10.98S45.187 19.3 51.237 19.3s10.961 4.92 10.961 10.98-4.912 10.98-10.961 10.98"></path></svg>