<svg xmlns:xlink="http://www.w3.org/1999/xlink" xmlns="http://www.w3.org/2000/svg" fill="none" viewBox="0 0 76 77" class="contact_ico__lkpZl" width="76"  height="77" ><g stroke-linecap="round" stroke-linejoin="round" stroke-width="2px" clip-path="url(#ico_cooperation_svg__a)" fill="none"><path stroke="#E3E6EE" d="M55.434 22.594a6.23 6.23 0 0 1-3.091.816 6.2 6.2 0 0 1-3.27-.924 11.08 11.08 0 0 0-9.882-.859l-1.164.466-5.401 2.144a10.7 10.7 0 0 0-4.061 2.857l-4.07 4.604a2.28 2.28 0 0 0 .836 3.618c1.6.667 3.42.55 4.923-.313l2.372-1.356 3.318-1.904a4.99 4.99 0 0 1 5.135.1l.709.518 4.962 3.287 11.066 7.327a3.106 3.106 0 0 1 .872 4.298c-.95 1.432-2.805 1.874-4.298.878l-11.183-7.405M58.191 42.575l7.569-5.389M20.29 21.439l.74.491a4.6 4.6 0 0 0 2.558.771c.892 0 1.816-.27 2.603-.8a9.84 9.84 0 0 1 9.553-.833l2.115.95M15.717 44.413l-.725-1.292a18.2 18.2 0 0 0-4.949-5.665M43.207 55.626c.907.595 1.307 1.48 1.307 2.489 0 .588-.165 1.184-.514 1.711a3.105 3.105 0 0 1-4.294.875L36.523 58.6" fill="none" stroke-width="2px"></path><path stroke="#E3E6EE" d="M52.85 47.13c1.426 1.06 1.823 3.032.88 4.454h-.004a3.1 3.1 0 0 1-4.315.862l-1.496-1.002-.033-.026-8.241-5.534" fill="none" stroke-width="2px"></path><path stroke="#E3E6EE" d="m36.129 50.943 8.333 5.512a3.102 3.102 0 0 0 4.656-3.566c-.202-.625-.609-1.06-1.198-1.451" fill="none" stroke-width="2px"></path><path fill="#68CAFF" stroke="#68CAFF" d="m20.836 20.696-7.945-5.263L1.395 32.788l7.945 5.263z" stroke-width="2px"></path><path stroke="#E3E6EE" d="M14.89 51.12a3.1 3.1 0 0 1-.694-4.335l2.164-2.987a3.1 3.1 0 0 1 4.334-.693 3.1 3.1 0 0 1 .693 4.334l-2.164 2.987a3.1 3.1 0 0 1-4.334.693M30.795 60.896a3.1 3.1 0 0 1-.693-4.334l.505-.696a3.1 3.1 0 0 1 4.334-.693 3.1 3.1 0 0 1 .693 4.334l-.505.696a3.1 3.1 0 0 1-4.334.693" fill="none" stroke-width="2px"></path><path stroke="#E3E6EE" d="M24.94 58.4a3.1 3.1 0 0 1-.693-4.333l2.163-2.987a3.1 3.1 0 0 1 4.334-.693 3.1 3.1 0 0 1 .694 4.334l-2.164 2.987a3.1 3.1 0 0 1-4.334.693" fill="none" stroke-width="2px"></path><path stroke="#E3E6EE" d="M19.291 55.619a3.1 3.1 0 0 1-.693-4.334l3.407-4.702a3.1 3.1 0 0 1 4.334-.693 3.1 3.1 0 0 1 .693 4.334l-3.407 4.702a3.1 3.1 0 0 1-4.334.693" fill="none" stroke-width="2px"></path><path fill="#0042FF" stroke="#0042FF" d="m66.844 37.92 7.762-5.53-12.08-16.955-7.762 5.53z" stroke-width="2px"></path></g><defs><clipPath id="ico_cooperation_svg__a"><path fill="#fff" d="M0 14.037h76v48.43H0z"></path></clipPath></defs></svg>