<svg xmlns:xlink="http://www.w3.org/1999/xlink" xmlns="http://www.w3.org/2000/svg" fill="none" viewBox="0 0 141 36" class="footer_logoEteverseBT__d8STB" width="141"  height="36" ><g clip-path="url(#etevers_eBT_svg__a)" fill="#434343"><path d="M35.087 34.749a2.5 2.5 0 0 1-.994-1.086c-.227-.47-.347-1.012-.347-1.642s.113-1.166.347-1.642q.341-.711.974-1.112.629-.393 1.467-.395c.487 0 .927.107 1.334.314s.727.543.973.999q.369.684.367 1.729v.422h-4.282c.014.382.087.704.234.978.147.275.34.476.594.617.253.14.54.214.873.214.334 0 .587-.06.814-.18a1.23 1.23 0 0 0 .5-.476h1.2a2 2 0 0 1-.48.864c-.227.248-.52.436-.867.576-.346.134-.74.201-1.173.201q-.879 0-1.528-.382zm2.954-3.29c0-.309-.06-.577-.187-.825a1.4 1.4 0 0 0-.527-.57 1.5 1.5 0 0 0-.786-.2c-.3 0-.58.073-.82.214q-.36.21-.561.583c-.14.248-.213.51-.233.797zM40.484 26.942h2.941c.554 0 1.02.094 1.408.275.38.18.667.435.853.75q.28.481.28 1.093c0 .469-.126.85-.373 1.125a1.86 1.86 0 0 1-.98.577v.08c.28.013.547.107.8.268.253.16.46.395.627.69q.24.444.24 1.039-.002.633-.294 1.126c-.193.328-.5.583-.907.77q-.61.282-1.52.282h-3.075zm2.848 3.485c.273 0 .514-.06.734-.161a1.3 1.3 0 0 0 .52-.443q.189-.291.187-.663 0-.523-.36-.844-.36-.322-1.06-.322H41.71v2.44h1.621zm.12 3.538c.554 0 .96-.114 1.22-.329.267-.214.394-.502.394-.857q-.002-.391-.193-.71a1.3 1.3 0 0 0-.554-.503 1.8 1.8 0 0 0-.827-.181h-1.787v2.573h1.74zM47.191 26.942h6.23V28h-2.495v7.016h-1.22V28h-2.508v-1.06zM.797 15.683V2.822L5.666 0l11.052 6.414v4.028L4.265 3.217v10.448l11.086 6.428-3.475 2.017z" fill="#434343"></path><path d="M19.488 0v15.254L7.035 8.029v4.028l11.086 6.434 1.84-1.073.16-.093 2.835-1.642V2.01zM112.104 19.717V3.54h7.291c3.628 0 5.776 2.097 5.776 5.1 0 2.004-1.074 3.713-3.495 4.845l4.028 6.227h-3.088l-3.835-5.972h-4.082v5.985h-2.601zm2.602-8.471h4.782c2.088 0 3.095-1.2 3.095-2.607s-.847-2.6-3.055-2.6h-4.822zM92.208 3.539c-.374 1.085-5.73 14.999-5.75 15.052-.02-.053-5.376-13.967-5.75-15.052h-3.001l6.33 16.171h4.829l6.33-16.171h-3.002zM35.147 17.217V12.48h9.004v-2.453h-9.004V6.038h9.565v-2.5H32.445v16.18h11.166l1.3-2.5zM66.198 17.217V12.48h8.997v-2.453h-8.997V6.038h9.564v-2.5H63.496v16.18h11.166l1.3-2.5zM99.854 17.217V12.48h9.004v-2.453h-9.004V6.038h9.571v-2.5H97.152v16.18h11.173l1.3-2.5zM134.03 9.993c-2.222-.71-3.729-1.039-3.702-2.373.026-1.34 1.741-2.037 3.888-1.843 1.635.141 2.908.664 4.289 1.542l1.081-2.071c-1.594-1.093-3.182-1.783-5.39-1.897-1.207-.06-2.808.12-4.102.804s-2.441 1.917-2.508 3.459c-.126 2.808 2.228 3.994 5.837 5.073 3.501 1.153 4.308 1.622 4.188 2.915-.126 1.327-1.921 2.178-4.055 1.937-1.954-.22-3.849-1.045-5.269-2.379l-1.154 2.218c2.168 1.823 4.262 2.44 6.376 2.56 4.823.262 6.744-2.137 6.844-4.255.127-2.735-1.421-4.115-6.317-5.677zM46.773 3.539v2.5h5.9830000000000005v13.678h2.702V6.038h5.976v-2.5z" fill="#434343"></path></g><defs><clipPath id="etevers_eBT_svg__a"><path fill="#fff" d="M.797 0h139.55v35.139H.797z"></path></clipPath></defs></svg>